<svg height="auto" viewBox="0 0 2000 1000" xmlns="http://www.w3.org/2000/svg"><path d="M0 455.557c25-17.532 75-71.903 125-87.661 50-15.759 75-76.141 125 8.868 50 85.01 75 374.15 125 416.178 50 42.028 75-198.642 125-206.041 50-7.4 75 131.828 125 169.045 50 37.217 75 90.462 125 17.04 50-73.421 75-258.095 125-384.148S950 94.42 1000 142.72c50 48.301 75 444.212 125 487.622 50 43.41 75-289.233 125-270.572 50 18.66 75 293.705 125 363.876 50 70.17 75 98.722 125-13.02 50-111.743 75-453.405 125-545.692 50-92.287 75-13.352 125 84.256 50 97.607 75 381.064 125 403.782 50 22.718 100-232.155 125-290.194V1000H0Z" fill="#444cf71a"/><path d="M0 455.557c25-17.532 75-71.903 125-87.661 50-15.759 75-76.141 125 8.868 50 85.01 75 374.15 125 416.178 50 42.028 75-198.642 125-206.041 50-7.4 75 131.828 125 169.045 50 37.217 75 90.462 125 17.04 50-73.421 75-258.095 125-384.148S950 94.42 1000 142.72c50 48.301 75 444.212 125 487.622 50 43.41 75-289.233 125-270.572 50 18.66 75 293.705 125 363.876 50 70.17 75 98.722 125-13.02 50-111.743 75-453.405 125-545.692 50-92.287 75-13.352 125 84.256 50 97.607 75 381.064 125 403.782 50 22.718 100-232.155 125-290.194" fill="none" stroke="#444cf7" stroke-width="4"/><g fill="#444cf7"><circle cy="455.557" r="8"/><circle cx="125" cy="367.896" r="8"/><circle cx="250" cy="376.764" r="8"/><circle cx="375" cy="792.942" r="8"/><circle cx="500" cy="586.901" r="8"/><circle cx="625" cy="755.946" r="8"/><circle cx="750" cy="772.986" r="8"/><circle cx="875" cy="388.838" r="8"/><circle cx="1000" cy="142.721" r="8"/><circle cx="1125" cy="630.343" r="8"/><circle cx="1250" cy="359.771" r="8"/><circle cx="1375" cy="723.647" r="8"/><circle cx="1500" cy="710.626" r="8"/><circle cx="1625" cy="164.935" r="8"/><circle cx="1750" cy="249.191" r="8"/><circle cx="1875" cy="652.973" r="8"/><circle cx="2000" cy="362.779" r="8"/></g></svg>