<svg height="auto" viewBox="0 0 2000 1000" xmlns="http://www.w3.org/2000/svg"><path d="M0 992.364c25-6.303 75-12.564 125-31.512s75-45.927 125-63.229c50-17.3 75-9.901 125-23.277 50-13.375 75-31.574 125-43.6 50-12.025 75-9.18 125-16.526s75 11.076 125-20.2 75-111.72 125-136.18c50-24.461 75 43 125 13.878 50-29.123 75-142.095 125-159.49 50-17.395 75 84.074 125 72.514 50-11.561 75-110.425 125-130.318 50-19.892 75 6.3 125 30.855s75 81.802 125 91.922c50 10.121 75-21.153 125-41.318 50-20.166 75-12.268 125-59.51 50-47.24 100-141.357 125-176.696V1000H0Z" fill="#444cf71a"/><path d="M0 992.364c25-6.303 75-12.564 125-31.512s75-45.927 125-63.229c50-17.3 75-9.901 125-23.277 50-13.375 75-31.574 125-43.6 50-12.025 75-9.18 125-16.526s75 11.076 125-20.2 75-111.72 125-136.18c50-24.461 75 43 125 13.878 50-29.123 75-142.095 125-159.49 50-17.395 75 84.074 125 72.514 50-11.561 75-110.425 125-130.318 50-19.892 75 6.3 125 30.855s75 81.802 125 91.922c50 10.121 75-21.153 125-41.318 50-20.166 75-12.268 125-59.51 50-47.24 100-141.357 125-176.696" fill="none" stroke="#444cf7" stroke-width="4"/><g fill="#444cf7"><circle cy="992.364" r="8"/><circle cx="125" cy="960.852" r="8"/><circle cx="250" cy="897.623" r="8"/><circle cx="375" cy="874.346" r="8"/><circle cx="500" cy="830.747" r="8"/><circle cx="625" cy="814.22" r="8"/><circle cx="750" cy="794.02" r="8"/><circle cx="875" cy="657.839" r="8"/><circle cx="1000" cy="671.718" r="8"/><circle cx="1125" cy="512.228" r="8"/><circle cx="1250" cy="584.742" r="8"/><circle cx="1375" cy="454.424" r="8"/><circle cx="1500" cy="485.279" r="8"/><circle cx="1625" cy="577.201" r="8"/><circle cx="1750" cy="535.883" r="8"/><circle cx="1875" cy="476.374" r="8"/><circle cx="2000" cy="299.677" r="8"/></g></svg>