<svg height="auto" viewBox="0 0 2000 1000" xmlns="http://www.w3.org/2000/svg"><path d="M0 268.817c25 76.252 75 408.167 125 381.258 50-26.91 75-438.806 125-515.804 50-76.998 75 25.3 125 130.815 50 105.517 75 298.111 125 396.766 50 98.655 75 128.93 125 96.508 50-32.422 75-189.168 125-258.619 50-69.451 75-16.573 125-88.637s75-314.043 125-271.684c50 42.358 75 397.8 125 483.477 50 85.677 75-13.527 125-55.093 50-41.565 75-92.371 125-152.734 50-60.362 75-152.307 125-149.079 50 3.228 75 151.568 125 165.218 50 13.65 75-82.594 125-96.967 50-14.374 75 61.995 125 25.1 50-36.896 100-167.662 125-209.577V1000H0Z" fill="#444cf71a"/><path d="M0 268.817c25 76.252 75 408.167 125 381.258 50-26.91 75-438.806 125-515.804 50-76.998 75 25.3 125 130.815 50 105.517 75 298.111 125 396.766 50 98.655 75 128.93 125 96.508 50-32.422 75-189.168 125-258.619 50-69.451 75-16.573 125-88.637s75-314.043 125-271.684c50 42.358 75 397.8 125 483.477 50 85.677 75-13.527 125-55.093 50-41.565 75-92.371 125-152.734 50-60.362 75-152.307 125-149.079 50 3.228 75 151.568 125 165.218 50 13.65 75-82.594 125-96.967 50-14.374 75 61.995 125 25.1 50-36.896 100-167.662 125-209.577" fill="none" stroke="#444cf7" stroke-width="4"/><g fill="#444cf7"><circle cy="268.817" r="8"/><circle cx="125" cy="650.075" r="8"/><circle cx="250" cy="134.271" r="8"/><circle cx="375" cy="265.086" r="8"/><circle cx="500" cy="661.852" r="8"/><circle cx="625" cy="758.36" r="8"/><circle cx="750" cy="499.741" r="8"/><circle cx="875" cy="411.104" r="8"/><circle cx="1000" cy="139.42" r="8"/><circle cx="1125" cy="622.897" r="8"/><circle cx="1250" cy="567.804" r="8"/><circle cx="1375" cy="415.07" r="8"/><circle cx="1500" cy="265.991" r="8"/><circle cx="1625" cy="431.209" r="8"/><circle cx="1750" cy="334.242" r="8"/><circle cx="1875" cy="359.342" r="8"/><circle cx="2000" cy="149.765" r="8"/></g></svg>