<svg height="auto" viewBox="0 0 2000 1000" xmlns="http://www.w3.org/2000/svg"><path d="M0 151.35c25 45.348 75 156.233 125 226.74 50 70.506 75 88.33 125 125.794 50 37.465 75 105.899 125 61.526 50-44.372 75-313.872 125-283.388 50 30.484 75 424.799 125 435.81 50 11.01 75-374.824 125-380.757 50-5.934 75 334.418 125 351.09 50 16.67 75-187.874 125-267.735 50-79.86 75-206.967 125-131.57 50 75.395 75 467.828 125 508.549 50 40.72 75-227.412 125-304.948 50-77.535 75-80.6 125-82.73 50-2.13 75 110.304 125 72.082 50-38.221 75-251.09 125-263.189 50-12.098 75 221.886 125 202.697 50-19.189 100-238.913 125-298.641V1000H0Z" fill="#444cf71a"/><path d="M0 151.35c25 45.348 75 156.233 125 226.74 50 70.506 75 88.33 125 125.794 50 37.465 75 105.899 125 61.526 50-44.372 75-313.872 125-283.388 50 30.484 75 424.799 125 435.81 50 11.01 75-374.824 125-380.757 50-5.934 75 334.418 125 351.09 50 16.67 75-187.874 125-267.735 50-79.86 75-206.967 125-131.57 50 75.395 75 467.828 125 508.549 50 40.72 75-227.412 125-304.948 50-77.535 75-80.6 125-82.73 50-2.13 75 110.304 125 72.082 50-38.221 75-251.09 125-263.189 50-12.098 75 221.886 125 202.697 50-19.189 100-238.913 125-298.641" fill="none" stroke="#444cf7" stroke-width="4"/><g fill="#444cf7"><circle cy="151.351" r="8"/><circle cx="125" cy="378.089" r="8"/><circle cx="250" cy="503.884" r="8"/><circle cx="375" cy="565.41" r="8"/><circle cx="500" cy="282.022" r="8"/><circle cx="625" cy="717.831" r="8"/><circle cx="750" cy="337.075" r="8"/><circle cx="875" cy="688.164" r="8"/><circle cx="1000" cy="420.43" r="8"/><circle cx="1125" cy="288.859" r="8"/><circle cx="1250" cy="797.409" r="8"/><circle cx="1375" cy="492.461" r="8"/><circle cx="1500" cy="409.731" r="8"/><circle cx="1625" cy="481.813" r="8"/><circle cx="1750" cy="218.624" r="8"/><circle cx="1875" cy="421.321" r="8"/><circle cx="2000" cy="122.68" r="8"/></g></svg>