<svg height="auto" viewBox="0 0 2000 1000" xmlns="http://www.w3.org/2000/svg"><path d="M0 775.907c25-26.064 75-94.454 125-130.324 50-35.87 75-68.705 125-49.027 50 19.677 75 197.402 125 147.414s75-380.109 125-397.353c50-17.244 75 315.435 125 311.132 50-4.304 75-352.558 125-332.648 50 19.91 75 403.844 125 432.196 50 28.351 75-173.958 125-290.439 50-116.48 75-231.318 125-291.963 50-60.645 75-21.893 125-11.263s75-25.29 125 64.413c50 89.705 75 340.065 125 384.108 50 44.044 75-199.275 125-163.89 50 35.385 75 327.446 125 340.816 50 13.37 75-255.03 125-273.967 50-18.937 100 143.427 125 179.284V1000H0Z" fill="#444cf71a"/><path d="M0 775.907c25-26.064 75-94.454 125-130.324 50-35.87 75-68.705 125-49.027 50 19.677 75 197.402 125 147.414s75-380.109 125-397.353c50-17.244 75 315.435 125 311.132 50-4.304 75-352.558 125-332.648 50 19.91 75 403.844 125 432.196 50 28.351 75-173.958 125-290.439 50-116.48 75-231.318 125-291.963 50-60.645 75-21.893 125-11.263s75-25.29 125 64.413c50 89.705 75 340.065 125 384.108 50 44.044 75-199.275 125-163.89 50 35.385 75 327.446 125 340.816 50 13.37 75-255.03 125-273.967 50-18.937 100 143.427 125 179.284" fill="none" stroke="#444cf7" stroke-width="4"/><g fill="#444cf7"><circle cy="775.907" r="8"/><circle cx="125" cy="645.583" r="8"/><circle cx="250" cy="596.556" r="8"/><circle cx="375" cy="743.97" r="8"/><circle cx="500" cy="346.617" r="8"/><circle cx="625" cy="657.749" r="8"/><circle cx="750" cy="325.101" r="8"/><circle cx="875" cy="757.297" r="8"/><circle cx="1000" cy="466.858" r="8"/><circle cx="1125" cy="174.895" r="8"/><circle cx="1250" cy="163.632" r="8"/><circle cx="1375" cy="228.045" r="8"/><circle cx="1500" cy="612.153" r="8"/><circle cx="1625" cy="448.263" r="8"/><circle cx="1750" cy="789.079" r="8"/><circle cx="1875" cy="515.112" r="8"/><circle cx="2000" cy="694.396" r="8"/></g></svg>