<svg height="auto" viewBox="0 0 2000 1000" xmlns="http://www.w3.org/2000/svg"><path d="M0 450.09c25-19.874 75-33.627 125-99.37 50-65.742 75-306.763 125-229.341 50 77.421 75 510.505 125 616.448 50 105.943 75 22.906 125-86.733 50-109.64 75-393.383 125-461.464 50-68.08 75 115.575 125 121.061 50 5.486 75-101.966 125-93.63 50 8.335 75 94.186 125 135.309 50 41.123 75 48.939 125 70.305 50 21.366 75-2.356 125 36.526 50 38.881 75 132.288 125 157.881 50 25.594 75-40.975 125-29.915 50 11.06 75 152.72 125 85.217s75-439.958 125-422.734c50 17.223 75 470.342 125 508.852 50 38.51 100-253.04 125-316.3V1000H0Z" fill="#444cf71a"/><path d="M0 450.09c25-19.874 75-33.627 125-99.37 50-65.742 75-306.763 125-229.341 50 77.421 75 510.505 125 616.448 50 105.943 75 22.906 125-86.733 50-109.64 75-393.383 125-461.464 50-68.08 75 115.575 125 121.061 50 5.486 75-101.966 125-93.63 50 8.335 75 94.186 125 135.309 50 41.123 75 48.939 125 70.305 50 21.366 75-2.356 125 36.526 50 38.881 75 132.288 125 157.881 50 25.594 75-40.975 125-29.915 50 11.06 75 152.72 125 85.217s75-439.958 125-422.734c50 17.223 75 470.342 125 508.852 50 38.51 100-253.04 125-316.3" fill="none" stroke="#444cf7" stroke-width="4"/><g fill="#444cf7"><circle cy="450.09" r="8"/><circle cx="125" cy="350.72" r="8"/><circle cx="250" cy="121.379" r="8"/><circle cx="375" cy="737.827" r="8"/><circle cx="500" cy="651.094" r="8"/><circle cx="625" cy="189.63" r="8"/><circle cx="750" cy="310.691" r="8"/><circle cx="875" cy="217.061" r="8"/><circle cx="1000" cy="352.37" r="8"/><circle cx="1125" cy="422.675" r="8"/><circle cx="1250" cy="459.201" r="8"/><circle cx="1375" cy="617.082" r="8"/><circle cx="1500" cy="587.167" r="8"/><circle cx="1625" cy="672.384" r="8"/><circle cx="1750" cy="249.65" r="8"/><circle cx="1875" cy="758.502" r="8"/><circle cx="2000" cy="442.202" r="8"/></g></svg>